<svg height="511pt" viewBox="0 0 511 511.856" width="511pt" xmlns="http://www.w3.org/2000/svg"><path d="M457.414 270.535C436.43 249.465 233.54 111.816 224.91 105.97c-1.312-.907-3.058-.914-4.402-.059a4.011 4.011 0 0 0-1.793 4.035c.496 2.934.715 6.871-1.047 8.957-1.191 1.41-3.473 2.13-6.758 2.13h-.012C168.98 121.031 23.438 13.304 6.563.702 4.98-.48 2.91-.097 1.508 1.305.102 2.71.109 5.152 1.3 6.75 65.812 93.16 130.59 195.465 120.348 215.887c-.68 1.36-2.016 2.922-6.313 2.922-1.168 0-2.445-.122-3.84-.352-1.55-.281-3.16.438-4.023 1.79a4.005 4.005 0 0 0 .055 4.401c5.851 8.633 143.503 211.52 164.57 232.582 24.894 24.899 58.023 38.61 93.27 38.61 35.25 0 68.402-13.711 93.335-38.61 24.938-24.933 38.676-58.101 38.676-93.375 0-35.289-13.738-68.421-38.664-93.32zm-93.312 177.297c-46.32 0-84-37.68-84-84s37.68-84 84-84 84 37.68 84 84-37.68 84-84 84zm0 0" fill="#5d9cec"/><path d="M452.117 363.855c0 48.61-39.406 88.016-88.015 88.016-48.61 0-88.016-39.406-88.016-88.016s39.406-88.015 88.016-88.015c48.609 0 88.015 39.406 88.015 88.015zm0 0" fill="#f5f7fa"/><path d="M364.11 475.855c-49.633 0-92.708-31.87-107.169-79.32a4 4 0 1 1 7.657-2.328c13.43 44.047 53.43 73.648 99.511 73.648 4.551 0 9.168-.304 13.711-.894 2.16-.29 4.192 1.254 4.489 3.453a4.013 4.013 0 0 1-3.457 4.488c-4.88.633-9.84.953-14.743.953zm29.87-4.183a3.988 3.988 0 0 1-3.84-2.895 3.997 3.997 0 0 1 2.743-4.945 103.447 103.447 0 0 0 14.433-5.344c1.985-.937 4.375-.047 5.297 1.969a3.99 3.99 0 0 1-1.968 5.293 110.26 110.26 0 0 1-15.551 5.77 4.108 4.108 0 0 1-1.114.152zm-136.726-87.895a4.013 4.013 0 0 1-3.953-3.418c-.801-5.441-1.2-10.992-1.2-16.511a4 4 0 0 1 8 0c0 5.136.376 10.297 1.126 15.343a4.01 4.01 0 0 1-3.375 4.543 5.379 5.379 0 0 1-.598.043zm211.133-44.168a3.988 3.988 0 0 1-3.856-2.953 103.8 103.8 0 0 0-5.117-14.511 4.007 4.007 0 0 1 2.055-5.274c2.031-.863 4.39.031 5.273 2.055a112.338 112.338 0 0 1 5.504 15.64 4 4 0 0 1-2.816 4.907c-.344.086-.7.136-1.043.136zm-12.805-29.21a4.01 4.01 0 0 1-3.387-1.864c-19.183-30.488-52.11-48.687-88.062-48.687h-.024c-13.945 0-27.48 2.71-40.218 8.054a3.993 3.993 0 0 1-5.23-2.144 3.99 3.99 0 0 1 2.144-5.23c13.726-5.758 28.304-8.68 43.312-8.68h.024c38.718 0 74.168 19.593 94.832 52.425 1.175 1.872.617 4.344-1.25 5.512a4.057 4.057 0 0 1-2.141.613zm-160.48-25.641a4.017 4.017 0 0 1-3.082-1.445 4.009 4.009 0 0 1 .52-5.633 112.65 112.65 0 0 1 13.495-9.633 4.028 4.028 0 0 1 5.504 1.344 4.018 4.018 0 0 1-1.344 5.504 102.665 102.665 0 0 0-12.535 8.945 4.012 4.012 0 0 1-2.558.918zm0 0" fill="#4a89dc"/><g fill="#5d9cec"><path d="M364.11 511.855c-39.528 0-76.696-15.398-104.657-43.359a3.999 3.999 0 1 1 5.656-5.656c26.454 26.45 61.606 41.015 99 41.015 37.391-.007 72.536-14.566 98.985-41.023 26.453-26.45 41.015-61.602 41.023-98.984 0-37.399-14.57-72.551-41.023-99.008a3.999 3.999 0 1 1 5.656-5.656c27.965 27.96 43.367 65.136 43.367 104.664-.008 39.52-15.41 76.687-43.367 104.64-27.953 27.961-65.113 43.36-104.64 43.367zm0 0"/><path d="M465.926 266.016c-1.028 0-2.051-.391-2.832-1.168l-22.625-22.625a4.006 4.006 0 0 1 0-5.657 4.006 4.006 0 0 1 5.656 0l22.625 22.625a4.006 4.006 0 0 1 0 5.657 3.984 3.984 0 0 1-2.824 1.168zm0 0M431.988 232.078a4.015 4.015 0 0 1-2.832-1.168l-11.312-11.308a3.999 3.999 0 1 1 5.656-5.656l11.313 11.308a4.006 4.006 0 0 1 0 5.656 3.984 3.984 0 0 1-2.825 1.168zm0 0M250.973 458.352a4.015 4.015 0 0 1-2.832-1.168l-5.657-5.657a4.006 4.006 0 0 1 0-5.656 4.006 4.006 0 0 1 5.657 0l5.656 5.656a4.006 4.006 0 0 1 0 5.657 3.984 3.984 0 0 1-2.824 1.168zm0 0M352.797 164.191a4.015 4.015 0 0 1-2.832-1.168L248.14 61.2a4.006 4.006 0 0 1 0-5.656 4.006 4.006 0 0 1 5.656 0l101.832 101.824a4.006 4.006 0 0 1 0 5.656 4.015 4.015 0 0 1-2.832 1.168zm0 0M217.035 73.688a4.015 4.015 0 0 1-2.832-1.168l-33.941-33.954a3.999 3.999 0 1 1 5.656-5.656l33.941 33.945a3.999 3.999 0 0 1 0 5.657 3.953 3.953 0 0 1-2.824 1.175zm0 0M160.453 333.895c-1.023 0-2.05-.391-2.832-1.168l-22.625-22.622a3.999 3.999 0 1 1 5.656-5.656l22.625 22.621a4.006 4.006 0 0 1 0 5.657 3.984 3.984 0 0 1-2.824 1.168zm0 0M103.89 254.703a4.015 4.015 0 0 1-2.831-1.168l-67.88-67.879a4.006 4.006 0 0 1 0-5.656 4.006 4.006 0 0 1 5.657 0l67.879 67.879a3.999 3.999 0 0 1-2.824 6.824zm0 0"/></g></svg>